<?xml version="1.0" encoding="utf-8"?>
<!-- Generator: Adobe Illustrator 23.0.1, SVG Export Plug-In . SVG Version: 6.00 Build 0)  -->
<svg version="1.1" id="Layer_1" xmlns="http://www.w3.org/2000/svg" xmlns:xlink="http://www.w3.org/1999/xlink" x="0px" y="0px"
	 viewBox="0 0 97.5 76.8" style="enable-background:new 0 0 97.5 76.8;" xml:space="preserve">
<style type="text/css">
	.st0{fill:#FABC57;}
</style>
<path class="st0" d="M96.4,22c-0.5-2.4-2.5-6.8-2.5-7.7c0.1-1.2,3.5-4.2,3.3-4.6c-0.2-0.4-5.3,0.5-5.7,0.3C91,9.8,90.7,9.4,90.4,9
	C82.5-2.6,70.2-2,59.3,5.5C49.8,12,42.9,21,36.6,30.5c-4.9,7.4-11.5,8.7-19.6,6.8C11,35.8,5.6,32.9,0.2,30c-0.8,6,1.5,14.4,6.2,21.2
	C16.2,65.6,31,72,47.2,75.8c6.5,1.5,13.3,1.3,19.7-0.6C88.2,69.2,101.5,45.4,96.4,22z M69.3,50.8c-9.3,8.9-25.5,4.5-31.5-6.1
	c7.4,1.1,12.2-1.8,15.5-7.5c0.4-0.7,1-1.4,1.6-1.9c5.1-5,9.7-5.6,13.5-1.8C73.6,38.6,74,46.3,69.3,50.8z M81.2,16.8
	c-1.6,0-2.9-1.3-2.9-2.9s1.3-2.9,2.9-2.9s2.9,1.3,2.9,2.9S82.8,16.8,81.2,16.8z"/>
<path class="st0" d="M59.3,52.6c2.1,0.1,12.1-5.3,9.6-14.2C67.9,48.4,59.3,52.6,59.3,52.6z"/>
</svg>
